<svg width="700" height="481" viewBox="0 0 700 481" fill="none" xmlns="http://www.w3.org/2000/svg">
<path d="M262.179 321.602C249.381 321.272 236.879 317.676 225.861 311.155C214.843 304.635 205.675 295.406 199.227 284.345C192.78 273.284 189.267 260.758 189.022 247.958C188.777 235.157 191.808 222.506 197.828 211.207" stroke="#812990" stroke-width="8" stroke-linecap="round"/>
<path d="M456.664 151.013C468.285 139.392 482.593 130.816 498.32 126.045C514.047 121.275 530.709 120.456 546.828 123.662C562.947 126.869 578.026 134.001 590.731 144.427C603.435 154.853 613.372 168.252 619.662 183.436C625.951 198.62 628.399 215.12 626.788 231.476C625.177 247.832 619.557 263.538 610.426 277.203C601.295 290.868 588.936 302.071 574.441 309.818C559.947 317.565 543.766 321.618 527.331 321.618" stroke="#812990" stroke-width="8" stroke-linecap="round"/>
<path d="M278.893 83.1087C291.098 61.2584 309.767 43.7214 332.337 32.9051C354.906 22.0888 380.271 18.5235 404.948 22.6987C429.625 26.8739 452.405 38.5848 470.16 56.2239C487.916 73.8629 499.776 96.5653 504.114 121.214" stroke="#812990" stroke-width="8" stroke-linecap="round"/>
<path d="M260.655 322.945H526.766" stroke="#831991" stroke-width="8" stroke-linecap="round"/>
<path d="M439.611 170.938H190.963C182.126 170.938 174.963 178.101 174.963 186.937V242.25C174.963 251.087 182.126 258.25 190.963 258.25H439.611C448.448 258.25 455.611 251.087 455.611 242.25V186.938C455.611 178.101 448.448 170.938 439.611 170.938Z" fill="white" stroke="#812990" stroke-width="7" stroke-miterlimit="10" stroke-linecap="round"/>
<path d="M215.977 223.656H198.184V256.357H215.977V223.656Z" fill="#E4D5E5" stroke="#812990" stroke-width="5" stroke-miterlimit="10" stroke-linecap="round"/>
<path d="M285.646 223.656H267.853V256.357H285.646V223.656Z" fill="#E4D5E5" stroke="#812990" stroke-width="5" stroke-miterlimit="10" stroke-linecap="round"/>
<path d="M233.42 223.656H215.627V256.357H233.42V223.656Z" fill="#E4D5E5" stroke="#812990" stroke-width="5" stroke-miterlimit="10" stroke-linecap="round"/>
<path d="M303.095 223.656H285.302V256.357H303.095V223.656Z" fill="#E4D5E5" stroke="#812990" stroke-width="5" stroke-miterlimit="10" stroke-linecap="round"/>
<path d="M250.868 223.656H233.075V256.357H250.868V223.656Z" fill="#E4D5E5" stroke="#812990" stroke-width="5" stroke-miterlimit="10" stroke-linecap="round"/>
<path d="M320.538 223.656H302.745V256.357H320.538V223.656Z" fill="#E4D5E5" stroke="#812990" stroke-width="5" stroke-miterlimit="10" stroke-linecap="round"/>
<path d="M432.632 204.1C437.162 204.1 440.835 200.428 440.835 195.898C440.835 191.368 437.162 187.695 432.632 187.695C428.102 187.695 424.43 191.368 424.43 195.898C424.43 200.428 428.102 204.1 432.632 204.1Z" fill="#E4D5E5" stroke="#812990" stroke-width="5" stroke-miterlimit="10" stroke-linecap="round"/>
<path d="M407.686 204.1C412.216 204.1 415.888 200.428 415.888 195.898C415.888 191.368 412.216 187.695 407.686 187.695C403.156 187.695 399.483 191.368 399.483 195.898C399.483 200.428 403.156 204.1 407.686 204.1Z" fill="#E4D5E5" stroke="#812990" stroke-width="5" stroke-miterlimit="10" stroke-linecap="round"/>
<path d="M382.741 204.1C387.271 204.1 390.943 200.428 390.943 195.898C390.943 191.368 387.271 187.695 382.741 187.695C378.211 187.695 374.538 191.368 374.538 195.898C374.538 200.428 378.211 204.1 382.741 204.1Z" fill="#E4D5E5" stroke="#812990" stroke-width="5" stroke-miterlimit="10" stroke-linecap="round"/>
<path d="M357.794 204.1C362.324 204.1 365.997 200.428 365.997 195.898C365.997 191.368 362.324 187.695 357.794 187.695C353.264 187.695 349.592 191.368 349.592 195.898C349.592 200.428 353.264 204.1 357.794 204.1Z" fill="#E4D5E5" stroke="#812990" stroke-width="5" stroke-miterlimit="10" stroke-linecap="round"/>
<path d="M332.841 204.1C337.371 204.1 341.044 200.428 341.044 195.898C341.044 191.368 337.371 187.695 332.841 187.695C328.311 187.695 324.639 191.368 324.639 195.898C324.639 200.428 328.311 204.1 332.841 204.1Z" fill="#E4D5E5" stroke="#812990" stroke-width="5" stroke-miterlimit="10" stroke-linecap="round"/>
<path d="M304.333 196.844H175.144" stroke="#812990" stroke-width="5" stroke-linecap="round" stroke-linejoin="round"/>
<path d="M439.611 270.305H190.963C182.126 270.305 174.963 277.468 174.963 286.305V341.618C174.963 350.454 182.126 357.618 190.963 357.618H439.611C448.448 357.618 455.611 350.454 455.611 341.618V286.305C455.611 277.468 448.448 270.305 439.611 270.305Z" fill="white" stroke="#812990" stroke-width="7" stroke-miterlimit="10" stroke-linecap="round"/>
<path d="M215.977 323.023H198.184V355.724H215.977V323.023Z" fill="#E4D5E5" stroke="#812990" stroke-width="5" stroke-miterlimit="10" stroke-linecap="round"/>
<path d="M285.646 323.023H267.853V355.724H285.646V323.023Z" fill="#E4D5E5" stroke="#812990" stroke-width="5" stroke-miterlimit="10" stroke-linecap="round"/>
<path d="M233.42 323.023H215.627V355.724H233.42V323.023Z" fill="#E4D5E5" stroke="#812990" stroke-width="5" stroke-miterlimit="10" stroke-linecap="round"/>
<path d="M303.095 323.023H285.302V355.724H303.095V323.023Z" fill="#E4D5E5" stroke="#812990" stroke-width="5" stroke-miterlimit="10" stroke-linecap="round"/>
<path d="M250.868 323.023H233.075V355.724H250.868V323.023Z" fill="#E4D5E5" stroke="#812990" stroke-width="5" stroke-miterlimit="10" stroke-linecap="round"/>
<path d="M320.538 323.023H302.745V355.724H320.538V323.023Z" fill="#E4D5E5" stroke="#812990" stroke-width="5" stroke-miterlimit="10" stroke-linecap="round"/>
<path d="M432.632 303.467C437.162 303.467 440.835 299.795 440.835 295.265C440.835 290.735 437.162 287.062 432.632 287.062C428.102 287.062 424.43 290.735 424.43 295.265C424.43 299.795 428.102 303.467 432.632 303.467Z" fill="#E4D5E5" stroke="#812990" stroke-width="5" stroke-miterlimit="10" stroke-linecap="round"/>
<path d="M407.686 303.467C412.216 303.467 415.888 299.795 415.888 295.265C415.888 290.735 412.216 287.062 407.686 287.062C403.156 287.062 399.483 290.735 399.483 295.265C399.483 299.795 403.156 303.467 407.686 303.467Z" fill="#E4D5E5" stroke="#812990" stroke-width="5" stroke-miterlimit="10" stroke-linecap="round"/>
<path d="M382.741 303.467C387.271 303.467 390.943 299.795 390.943 295.265C390.943 290.735 387.271 287.062 382.741 287.062C378.211 287.062 374.538 290.735 374.538 295.265C374.538 299.795 378.211 303.467 382.741 303.467Z" fill="#E4D5E5" stroke="#812990" stroke-width="5" stroke-miterlimit="10" stroke-linecap="round"/>
<path d="M357.794 303.467C362.324 303.467 365.997 299.795 365.997 295.265C365.997 290.735 362.324 287.062 357.794 287.062C353.264 287.062 349.592 290.735 349.592 295.265C349.592 299.795 353.264 303.467 357.794 303.467Z" fill="#E4D5E5" stroke="#812990" stroke-width="5" stroke-miterlimit="10" stroke-linecap="round"/>
<path d="M332.841 303.467C337.371 303.467 341.044 299.795 341.044 295.265C341.044 290.735 337.371 287.062 332.841 287.062C328.311 287.062 324.639 290.735 324.639 295.265C324.639 299.795 328.311 303.467 332.841 303.467Z" fill="#E4D5E5" stroke="#812990" stroke-width="5" stroke-miterlimit="10" stroke-linecap="round"/>
<path d="M304.333 296.211H175.144" stroke="#812990" stroke-width="5" stroke-linecap="round" stroke-linejoin="round"/>
<path d="M439.611 369.672H190.963C182.126 369.672 174.963 376.835 174.963 385.672V440.985C174.963 449.821 182.126 456.985 190.963 456.985H439.611C448.448 456.985 455.611 449.821 455.611 440.985V385.672C455.611 376.835 448.448 369.672 439.611 369.672Z" fill="white" stroke="#812990" stroke-width="7" stroke-miterlimit="10" stroke-linecap="round"/>
<path d="M215.977 422.391H198.184V455.091H215.977V422.391Z" fill="#E4D5E5" stroke="#812990" stroke-width="5" stroke-miterlimit="10" stroke-linecap="round"/>
<path d="M285.646 422.391H267.853V455.091H285.646V422.391Z" fill="#E4D5E5" stroke="#812990" stroke-width="5" stroke-miterlimit="10" stroke-linecap="round"/>
<path d="M233.42 422.391H215.627V455.091H233.42V422.391Z" fill="#E4D5E5" stroke="#812990" stroke-width="5" stroke-miterlimit="10" stroke-linecap="round"/>
<path d="M303.095 422.391H285.302V455.091H303.095V422.391Z" fill="#E4D5E5" stroke="#812990" stroke-width="5" stroke-miterlimit="10" stroke-linecap="round"/>
<path d="M250.868 422.391H233.075V455.091H250.868V422.391Z" fill="#E4D5E5" stroke="#812990" stroke-width="5" stroke-miterlimit="10" stroke-linecap="round"/>
<path d="M320.538 422.391H302.745V455.091H320.538V422.391Z" fill="#E4D5E5" stroke="#812990" stroke-width="5" stroke-miterlimit="10" stroke-linecap="round"/>
<path d="M432.632 402.835C437.162 402.835 440.835 399.162 440.835 394.632C440.835 390.102 437.162 386.43 432.632 386.43C428.102 386.43 424.43 390.102 424.43 394.632C424.43 399.162 428.102 402.835 432.632 402.835Z" fill="#E4D5E5" stroke="#812990" stroke-width="5" stroke-miterlimit="10" stroke-linecap="round"/>
<path d="M407.686 402.835C412.216 402.835 415.888 399.162 415.888 394.632C415.888 390.102 412.216 386.43 407.686 386.43C403.156 386.43 399.483 390.102 399.483 394.632C399.483 399.162 403.156 402.835 407.686 402.835Z" fill="#E4D5E5" stroke="#812990" stroke-width="5" stroke-miterlimit="10" stroke-linecap="round"/>
<path d="M382.741 402.835C387.271 402.835 390.943 399.162 390.943 394.632C390.943 390.102 387.271 386.43 382.741 386.43C378.211 386.43 374.538 390.102 374.538 394.632C374.538 399.162 378.211 402.835 382.741 402.835Z" fill="#E4D5E5" stroke="#812990" stroke-width="5" stroke-miterlimit="10" stroke-linecap="round"/>
<path d="M357.794 402.835C362.324 402.835 365.997 399.162 365.997 394.632C365.997 390.102 362.324 386.43 357.794 386.43C353.264 386.43 349.592 390.102 349.592 394.632C349.592 399.162 353.264 402.835 357.794 402.835Z" fill="#E4D5E5" stroke="#812990" stroke-width="5" stroke-miterlimit="10" stroke-linecap="round"/>
<path d="M332.841 402.835C337.371 402.835 341.044 399.162 341.044 394.632C341.044 390.102 337.371 386.43 332.841 386.43C328.311 386.43 324.639 390.102 324.639 394.632C324.639 399.162 328.311 402.835 332.841 402.835Z" fill="#E4D5E5" stroke="#812990" stroke-width="5" stroke-miterlimit="10" stroke-linecap="round"/>
<path d="M304.333 395.57H175.144" stroke="#812990" stroke-width="5" stroke-linecap="round" stroke-linejoin="round"/>
<path d="M119.455 270.735L105.166 111.037C104.54 104.033 110.057 98 117.089 98H279.106C286.138 98 291.655 104.033 291.028 111.036L276.739 270.735C275.798 281.256 268.477 290.111 258.32 293.013L205.112 308.215C200.527 309.525 195.667 309.525 191.082 308.215L137.874 293.013C127.718 290.111 120.397 281.256 119.455 270.735Z" fill="white" stroke="white" stroke-width="38" stroke-linejoin="round"/>
<path d="M119.455 270.735L105.166 111.037C104.54 104.033 110.057 98 117.089 98H279.106C286.138 98 291.655 104.033 291.028 111.036L276.739 270.735C275.798 281.256 268.477 290.111 258.32 293.013L205.112 308.215C200.527 309.525 195.667 309.525 191.082 308.215L137.874 293.013C127.718 290.111 120.397 281.256 119.455 270.735Z" fill="#E4D5E5" stroke="#831991" stroke-width="8" stroke-linejoin="round"/>
<path d="M198.098 283.892V121.197C198.098 117.231 201.313 114.016 205.28 114.016H265.35C269.559 114.016 272.866 117.619 272.506 121.812L259.594 272.137C259.334 275.163 257.199 277.699 254.261 278.469L207.102 290.839C202.549 292.033 198.098 288.599 198.098 283.892Z" fill="#F9F9F9" stroke="#831991" stroke-width="5" stroke-linejoin="round"/>
<path d="M254.511 134.594H214.882C210.034 134.594 206.104 138.524 206.104 143.372V204.159C206.104 209.635 211.064 213.775 216.453 212.795L227.59 210.77C233.358 209.721 238.513 214.513 237.888 220.341L236.778 230.706C236.391 234.317 233.82 237.317 230.312 238.252L212.621 242.97C208.778 243.995 206.104 247.475 206.104 251.451V254.258C206.104 260.039 211.597 264.242 217.177 262.73L248.165 254.338C251.755 253.366 254.342 250.237 254.623 246.528L258.326 197.641C258.753 192.015 253.837 187.454 248.259 188.299L236.218 190.124C230.907 190.928 226.125 186.816 226.125 181.445V164.393C226.125 159.545 230.055 155.615 234.903 155.615H254.181C258.706 155.615 262.49 152.175 262.919 147.67L263.249 144.204C263.74 139.05 259.688 134.594 254.511 134.594Z" fill="#831991"/>
<path d="M187.195 254.343V143.372C187.195 138.524 183.265 134.594 178.417 134.594H174.951C170.103 134.594 166.173 138.524 166.173 143.372V227.153C166.173 232.958 160.639 237.164 155.046 235.61L141.263 231.782C135.67 230.228 130.136 234.435 130.136 240.239V243.947C130.136 247.935 132.823 251.421 136.68 252.436L176.183 262.831C181.749 264.296 187.195 260.098 187.195 254.343Z" fill="#831991" stroke="#831991" stroke-width="5" stroke-linejoin="round"/>
</svg>
